<svg xmlns="http://www.w3.org/2000/svg" viewBox="0 0 638 423.39"><defs><style>.cls-1{fill:#fff;}</style></defs><title>Recurso 2</title><g id="Capa_2" data-name="Capa 2"><g id="Capa_1-2" data-name="Capa 1"><path class="cls-1" d="M408,76.23S396.7,86.61,375.5,78.82c0,0-55.39-18.3-89.57.15,0,0-34.18,39.66-32.88,52.64,0,0,22.5,4.76,36.35-15.14s33.31-16.88,45.43-6.06l92.59,64.9,24.22-19.9Z"/><rect class="cls-1" x="202.87" y="180.72" width="26.54" height="18.49" rx="9.24" transform="translate(-66.97 241.44) rotate(-51.62)"/><rect class="cls-1" x="269.78" y="234.53" width="34.61" height="22.86" rx="9.24" transform="translate(-83.97 318.29) rotate(-51.62)"/><rect class="cls-1" x="239.41" y="214.84" width="47.82" height="22.86" rx="9.24" transform="translate(-77.54 292.19) rotate(-51.62)"/><rect class="cls-1" x="214.13" y="193.24" width="53.86" height="22.86" rx="9.24" transform="translate(-69.05 266.56) rotate(-51.62)"/><path class="cls-1" d="M231.2,77.42s21.42,3.89,34.4,12.65c0,0-31.15,39.59-17.2,47.38s30.83-1.62,42.51-11.36,15.9-25,40.24-9.08c19.08,12.46,69.68,48.67,90.64,63.72a11.82,11.82,0,0,1,2.91,16.2h0a11.82,11.82,0,0,1-15.89,3.54l-53.65-32.19-4.22,7,46.45,28.88a10.67,10.67,0,0,1,3.44,14.68h0a10.68,10.68,0,0,1-14.39,3.65l-45.88-26.34-3.9,7.14L374,226.41a9.79,9.79,0,0,1,3.5,12.91h0a9.79,9.79,0,0,1-13,4.18l-38.82-19.41-4.22,7.46,33.75,18.18s-1.3,16.87-49,4.86c0,0,19.47-27.58-14-36,0,0,.32-21.09-21.74-23.68,0,0,3.57-22.69-21.74-24.13,0,0-6.1-.31-14.18,10.2,0,0-12.83-20.76-30.34-3.7,0,0-15.5-16.77-18.11-22.29Z"/><path class="cls-1" d="M413.79,72.53l45.86,82.1A13.71,13.71,0,0,0,476,160.94l68.77-23.07a13.71,13.71,0,0,0,9.35-13V18.08a13.7,13.7,0,0,0-19-12.65L420.49,53.18A13.73,13.73,0,0,0,413.79,72.53Z"/><path class="cls-1" d="M223.85,72.46l-45.92,82.22A13.65,13.65,0,0,1,161.67,161L92.81,137.85a13.65,13.65,0,0,1-9.3-12.94V18A13.64,13.64,0,0,1,102.4,5.39L217.19,53.21A13.65,13.65,0,0,1,223.85,72.46Z"/><path class="cls-1" d="M419.28,43.86,410.43,2a2.51,2.51,0,0,0-3-1.94l-9.54,2a2.49,2.49,0,0,0-1.58,1.08A2.52,2.52,0,0,0,396,5l4,18.8a160.41,160.41,0,0,0-177.74,10.3,2.51,2.51,0,0,0-1,2.16,2.54,2.54,0,0,0,1.26,2l10.72,6.12a2.53,2.53,0,0,0,2.69-.12,144.09,144.09,0,0,1,154.89-7l-18.36,3.89a2.5,2.5,0,0,0-1.93,3l2,9.54a2.53,2.53,0,0,0,2.46,2,2.31,2.31,0,0,0,.52-.06l41.87-8.85a2.53,2.53,0,0,0,1.58-1.08A2.48,2.48,0,0,0,419.28,43.86Z"/><path class="cls-1" d="M477.71,175.16a2.51,2.51,0,0,0-2.59-.09l-10.9,6a2.38,2.38,0,0,0-.91.18,2.5,2.5,0,0,0-1.55,2C451.58,253.78,390.13,307,318.8,307c-68.45,0-128-49.18-141.51-115.59L193,202.54a2.51,2.51,0,0,0,3.5-.59l5.65-7.95a2.5,2.5,0,0,0-.59-3.5l-34.87-24.81a2.51,2.51,0,0,0-3.5.59l-24.81,34.87a2.51,2.51,0,0,0,.59,3.5l7.95,5.65a2.44,2.44,0,0,0,1.45.47l.42,0a2.51,2.51,0,0,0,1.62-1l10.92-15.34a160.73,160.73,0,0,0,317.54-16.88A2.52,2.52,0,0,0,477.71,175.16Z"/><path class="cls-1" d="M163.35,400.54a4.19,4.19,0,0,0-3.69-1,3.13,3.13,0,0,0-2.11,2.13,20.14,20.14,0,0,1-19.25,14.09c-7.63,0-15.2-5.24-18.62-11.72l1.43.71a1.79,1.79,0,0,0,2.62-.29l1-1.13a2.52,2.52,0,0,0-.63-3.82l-6.79-3.94-.25-.13-1.45-.64a2.51,2.51,0,0,0-2.9.66l-5.79,7.07a2.51,2.51,0,0,0,.3,3.47l1.14,1a2.49,2.49,0,0,0,1.65.61h.21a2.47,2.47,0,0,0,1.73-.91l1.22-1.5a27.71,27.71,0,0,0,25.06,17.33h.87c15.53,0,22.36-12.73,24.11-16.7,1.05-2.4,1.59-3.82.35-5.1Z"/><path class="cls-1" d="M169.72,384.71l-1.13-1a2.52,2.52,0,0,0-3.6.32l-1.21,1.49a27.73,27.73,0,0,0-25.06-17.33h-.87c-15.53,0-22.36,12.74-24.11,16.7-1,2.4-1.59,3.82-.35,5.1a1.12,1.12,0,0,0,.2.18,4.18,4.18,0,0,0,3.68,1,3.13,3.13,0,0,0,2.12-2.13A20.14,20.14,0,0,1,138.64,375c7.63,0,16.14,5.62,19.4,12l-1.87-1.07c-1.27-.64-2.17-.53-3,.38l-1,1.14a2.46,2.46,0,0,0-.58,2.05,2.49,2.49,0,0,0,1.21,1.76l6.79,3.95.25.13,1.45.63a2.52,2.52,0,0,0,2.9-.65l5.79-7.07A2.52,2.52,0,0,0,169.72,384.71Z"/><path class="cls-1" d="M109.83,354.9a4.72,4.72,0,0,0-6,2.65L82.07,407.83,60.9,364.52A5.17,5.17,0,0,0,56.05,362a4.27,4.27,0,0,0-3.78,2.69L31.22,407.83,9.4,357.57c-1.06-2.7-3.9-3.26-6.15-2.41A4.54,4.54,0,0,0,.3,361.08l26.22,59.4a4.38,4.38,0,0,0,4,2.76,4.91,4.91,0,0,0,4.64-2.61l21.4-43.95,21.29,43.95a4.63,4.63,0,0,0,4.17,2.76h0a4.76,4.76,0,0,0,4.27-2.89L112.84,361A4.67,4.67,0,0,0,109.83,354.9Z"/><path class="cls-1" d="M196,368.61c-6.32,0-11.07,2.1-14.14,6.25V373a4.2,4.2,0,0,0-1.38-3.29A4.6,4.6,0,0,0,173,373v44.69a4.33,4.33,0,0,0,4.62,4.42,4.43,4.43,0,0,0,4.52-4.42v-22.8c0-5.28,1.36-17.57,13.94-17.57,2.91,0,4.72-1.66,4.72-4.32S198.94,368.61,196,368.61Z"/><path class="cls-1" d="M225.73,392.86,244,376a4.3,4.3,0,0,0,.49-6.29,4.83,4.83,0,0,0-6.93-.05l-18.19,17L213.87,392v-34.3c0-5.23-9.14-5.23-9.14,0V418a4.3,4.3,0,0,0,4.51,4.37,4.37,4.37,0,0,0,4.63-4.37V402.68l5-4.49,19.95,22.39a4.78,4.78,0,0,0,3.8,2,5.16,5.16,0,0,0,.67-.05,4.59,4.59,0,0,0,3.62-2.83,4.44,4.44,0,0,0-1-4.57Z"/><path class="cls-1" d="M551.23,368.61c-9.45,0-17.43,4.53-21.32,11.95-4-8.76-13-11.95-20.55-11.95-7.67,0-14,2.95-18.07,8.38v-4a4.28,4.28,0,0,0-4.42-4.42,4.47,4.47,0,0,0-4.52,4.42v45.09c0,5.66,9.14,5.73,9.14,0v-22.7a17.8,17.8,0,0,1,18-18,15.41,15.41,0,0,1,8.2,2.18c4.1,2.59,6.54,7.62,6.54,13.47v25a4.62,4.62,0,0,0,9.24,0V395.93c0-10.77,7.61-18.58,18.08-18.58,8.22,0,14.56,6,14.75,14v26.72a4.15,4.15,0,0,0,4.52,4.42,4.28,4.28,0,0,0,4.62-4.42v-27C575.42,376.49,563,368.61,551.23,368.61Z"/><path class="cls-1" d="M638,395.05c-.26-13-7.47-22.76-19.31-26l-.22,0a29.15,29.15,0,0,0-15.49,0,25.53,25.53,0,0,0-17.5,16.77,30,30,0,0,0,4.44,27.41c4.64,5.83,12.56,9.31,21.16,9.31h.55c7.28,0,13.67-2.23,18-6.33,2.3-2.35,1.93-4.85.55-6.28a4.66,4.66,0,0,0-6.57,0A21.11,21.11,0,0,1,610.76,414c-8.64,0-15.65-5.44-17.39-13.36h38.77a6,6,0,0,0,4.67-1.68A5,5,0,0,0,638,395.05ZM629,392.72H593c.89-7.76,5.58-13.44,12.69-15.31a20.35,20.35,0,0,1,9.26-.36l1.07.27C623.13,379.15,628.07,385,629,392.72Z"/><path class="cls-1" d="M340.63,370.68,324.16,409,308.37,376.5c-1.48-3.25-5.43-3.25-6.81,0L286,408.87,269.1,370.29c-1.38-3.16-8.39-1.48-6.81,2.76l19.93,45.88c1.29,3.06,5.53,2.37,6.71,0l16.28-33.15L321,418.93c1.18,2.47,5.52,2.67,6.61,0l19.63-45.88C349,368.81,342,367,340.63,370.68Z"/><path class="cls-1" d="M355.52,358v4.44c0,4.53,7.4,4.44,7.4,0V358C362.92,353.42,355.52,353.42,355.52,358Z"/><path class="cls-1" d="M355.62,373.05v44.4c0,4.24,7.2,4.34,7.2,0V373C362.82,368.71,355.62,368.81,355.62,373.05Z"/><path class="cls-1" d="M399.53,413.11a11.13,11.13,0,0,1-4.64,1.08c-6.71,0-7.6-5.91-7.6-11.54V376h10.76a3.11,3.11,0,1,0,0-6.21H387.29V358.35c0-4.64-7.1-4.74-7.1,0V369.8h-6.51a3.12,3.12,0,1,0,0,6.21h6.51v26.64c0,9.37,2.86,18.06,14.7,18.06a14.8,14.8,0,0,0,7.6-1.68C406.93,416.56,403.67,410.74,399.53,413.11Z"/><path class="cls-1" d="M440.27,368.91c-7.4,0-15.1,2.86-18.65,9.77V358c0-4.15-7.3-4.25-7.3,0v59.1a3.42,3.42,0,0,0,3.75,3.55,3.26,3.26,0,0,0,3.55-3.55V392.49c0-10.16,9-16.87,18.55-16.87A15.26,15.26,0,0,1,455.46,391v26.05a3.39,3.39,0,0,0,3.66,3.55,3.27,3.27,0,0,0,3.55-3.55V391C462.67,376.8,451.72,368.91,440.27,368.91Z"/></g></g></svg>